<?xml version="1.0" standalone="no"?><!DOCTYPE svg PUBLIC "-//W3C//DTD SVG 1.1//EN" "http://www.w3.org/Graphics/SVG/1.1/DTD/svg11.dtd"><svg t="1544252171928" class="icon" style="" viewBox="0 0 1024 1024" version="1.1" xmlns="http://www.w3.org/2000/svg" p-id="5138" xmlns:xlink="http://www.w3.org/1999/xlink" width="16" height="16"><defs><style type="text/css"></style></defs><path d="M112 176l0 672 800 0L912 176 112 176zM256 816 144 816l0-96 112 0L256 816zM256 688 144 688l0-96 112 0L256 688zM256 560 144 560l0-96 112 0L256 560zM256 432 144 432l0-96 112 0L256 432zM256 304 144 304l0-96 112 0L256 304zM736 528 288 528l0-32 448 0L736 528zM880 816l-112 0 0-96 112 0L880 816zM880 688l-112 0 0-96 112 0L880 688zM880 560l-112 0 0-96 112 0L880 560zM880 432l-112 0 0-96 112 0L880 432zM880 304l-112 0 0-96 112 0L880 304z" p-id="5139" fill="#00A0FC"></path></svg>
